<svg xmlns="http://www.w3.org/2000/svg" xmlns:xlink="http://www.w3.org/1999/xlink" width="50" height="50" version="1.1" viewBox="0 0 50 50"><defs><path id="path-1" d="M0 0h29.33v27.071H0z"/><path id="path-3" d="M0 0h6.565v6.823H0z"/></defs><g id="Page-1" fill="none" fill-rule="evenodd" stroke="none" stroke-width="1"><g id="PDP-DESKTOP---Fitcode-not-taken-v2" transform="translate(-651 -2379)"><g id="Group-19" transform="translate(651 2379)"><rect id="Mask" width="49.01" height="49.01" x=".495" y=".495" stroke="#DDD" stroke-width=".99" rx="24.505"/><g id="Group-2" transform="translate(10 10)"><g id="Group-3" transform="translate(0 1.76)"><mask id="mask-2" fill="#fff"><use xlink:href="#path-1"/></mask><path id="Fill-1" fill="#000" d="M28.76 23.812c-.615.122-1.14.288-1.642.628a24.05 24.05 0 0 1-1.9 1.164c-.944.514-2.026.778-3.407.832a4.42 4.42 0 0 1-.998-.06 10.789 10.789 0 0 1-1.513-.368 2.324 2.324 0 0 1-.43-.222c-.21-.125-.424-.254-.675-.307-.332-.07-.635-.116-.938-.164a.187.187 0 0 0-.037-.12c-.635-.803-1.019-1.73-1.066-2.753 3.302-1.546 6.156-3.944 8.122-7.297l.023.009.094-.142.044.04-.03-.06.103-.154-.017-2.043c-.013-1.446-.025-2.89-.025-4.335-.001-1.804-.043-3.317-.24-4.844a7.752 7.752 0 0 0-.356-1.552 3.068 3.068 0 0 0-.567-.94c-.176-.186-.393-.4-.422-.482.34.112 1.842.7 2.37 2.54a20.44 20.44 0 0 1 .719 3.715c.033.35.07.7.109 1.05.06.564.12 1.128.163 1.693.064.844.091 1.722.116 2.494a78.06 78.06 0 0 1 .052 2.848c-.007.677.103 1.214.353 1.74.312.655.545 1.384.77 2.09l.117.361c.22.673.583 1.068 1.108 1.2v3.44Zm-12.965 1.344a33.461 33.461 0 0 0-1.307-.029c-.557 0-1.123.034-1.689.09.493-.8.783-1.694.814-2.65.62.54 1.251.61 1.883.197l.085-.058c.082-.036.16-.076.242-.111.07.974.43 1.87.998 2.652a12.172 12.172 0 0 0-1.026-.091Zm-3.956.18-.087.016a3.486 3.486 0 0 0-.736.186c-.18.073-.355.166-.53.256-.21.111-.408.217-.612.283-.937.31-1.84.414-2.756.318-.543-.057-1.256-.15-1.957-.363-.819-.25-1.533-.71-2.288-1.196-.239-.154-.478-.308-.72-.454a4.131 4.131 0 0 0-1.576-.567V20.37c.408-.083.858-.369 1.11-1.153.065-.2.126-.4.187-.601.24-.792.472-1.541.859-2.222.11.247.244.486.425.709.14.17.274.208.365.208a.268.268 0 0 0 .063-.007c.08-.016.228-.082.315-.337.099-.287.158-.589.216-.882l.05-.251a.647.647 0 0 0 .012-.127c.186.045.373.081.568.081.175 0 .353-.018.533-.055.218-.043.327-.144.384-.24 1.892 3.063 4.533 5.312 7.585 6.805a4.959 4.959 0 0 1-.912 2.974c-.166.025-.333.033-.498.064Zm-9.75-9.532c-.212.07-.413.138-.617.176-.093.018-.13-.004-.135-.01-.007-.01-.018-.056.012-.155.202-.66.572-1.146 1.094-1.45a.53.53 0 0 1 .341-.05 1.021 1.021 0 0 0-.112.121c-.013.016-.03.028-.041.045a.99.99 0 0 0-.106.206c-.001.002-.003.004-.003.007a1.43 1.43 0 0 0-.06.752c.032.205-.008.239-.13.277l-.243.08Zm-.55-1.68c-.187-.18-.363-.351-.511-.549-.058-.075-.067-.12-.066-.129.004-.01.04-.041.138-.064.183-.041.36-.062.531-.062.459 0 .877.15 1.245.447.031.024.052.05.074.075a.608.608 0 0 1 .051.125c-.189-.099-.394-.096-.612.008l-.012.004c-.016.007-.03.01-.045.017-.017.01-.031.023-.048.033-.156.078-.3.182-.417.288-.053.049-.075.05-.074.05 0 0-.015-.004-.045-.034-.067-.07-.139-.14-.21-.208Zm.937-1.121c.026-.123.049-.246.07-.37.044-.245.085-.477.158-.697.035-.108.072-.135.08-.136.012-.018.059.012.136.11.416.537.612 1.137.581 1.782a.75.75 0 0 1-.033.192.607.607 0 0 1-.086.124.721.721 0 0 0-.177-.415c-.167-.248-.42-.402-.666-.506-.048-.02-.065-.035-.068-.035a.123.123 0 0 1 .005-.05Zm2.364.93v.193a.62.62 0 0 0-.088-.066c.032-.04.058-.086.088-.128Zm-.992-.75c-.022-.146-.002-.152.07-.175.088-.027.177-.057.265-.087.246-.082.48-.162.719-.204.055-.01.084-.001.086 0 .004.008.01.048-.013.125-.214.745-.626 1.266-1.228 1.55a.445.445 0 0 1-.077.023c-.049-.002-.097-.002-.148-.017a.784.784 0 0 0 .186-.22c.009-.014.013-.03.021-.045.024-.047.051-.092.067-.146.084-.215.103-.469.052-.804Zm-.016 2.568-.051.255c-.057.292-.111.568-.202.83-.025.074-.051.097-.056.099h-.001c-.01 0-.05-.015-.108-.086a2.59 2.59 0 0 1-.599-1.864.55.55 0 0 1 .06-.217.595.595 0 0 1 .06-.085c.067.465.31.743.805.948.106.045.103.062.092.12Zm-.243-.683c-.154-.097-.236-.199-.267-.331a.674.674 0 0 0 .278.068c.01 0 .015-.005.025-.006.276.022.537-.095.83-.362.1-.093.114-.076.174-.015l.203.203c.177.172.344.336.484.524.06.081.064.127.061.137-.005.012-.043.054-.16.077a2.15 2.15 0 0 1-1.628-.295Zm-.538-3.672c.005-.235.015-.47.03-.704l.075-1.087c.051-.786.105-1.571.18-2.353.035-.375.095-.747.154-1.12.055-.352.112-.706.15-1.06C3.872 2.847 5.688.926 6.096.631h.107c-.088.219-.98 2.09-1.02 2.479a76.579 76.579 0 0 0-.286 3.35c-.05.806-.056 1.617-.06 2.448-.005 1.147-.003 2.294-.003 3.44-.258.047-.508.13-.752.213l-.259.086c-.04.013-.072.034-.106.054a3.171 3.171 0 0 0-.536-1.035.827.827 0 0 0-.133-.139l.002-.13Zm4.08 4.056a9.65 9.65 0 0 1 3.561 1.281 5.332 5.332 0 0 1 1.728 1.698c.588.916.846 2.032.789 3.426v.016c-2.921-1.461-5.45-3.649-7.267-6.597l1.19.176Zm9.069 5.153a4.78 4.78 0 0 1 1.198-2.794c.577-.661 1.32-1.186 2.27-1.603.964-.422 1.94-.696 2.9-.817.387-.049.774-.103 1.165-.158l.07-.01c-1.89 3.091-4.566 5.343-7.651 6.811.005-.107.007-.214.02-.322.003-.013-.007-.017-.007-.029 0-.07 0-.14-.013-.217-.028-.188-.003-.405.023-.634l.025-.227Zm4.464-14.02.069 8.571c-.427.131-.853.283-1.277.469-1.028.45-1.836 1.023-2.472 1.752a5.495 5.495 0 0 0-1.355 3.166l-.023.211c-.029.262-.06.535-.02.813.044.286-.043.433-.383.655-.478.313-.92.21-1.423-.33v-.02c.063-1.525-.229-2.769-.892-3.803a5.905 5.905 0 0 0-1.92-1.887 10.051 10.051 0 0 0-2.602-1.102V7.736c0-.054-.005-.101-.007-.148-.004-.3-.03-.566-.017-.89l-.525.001c-.026.515-.022.886-.022.889-.005.05-.001.094-.001.148v7.211c-.194-.04-.386-.087-.584-.117l-1.803-.27V12.98c-.001-1.357-.002-2.713.004-4.069.002-.446.007-.884.016-1.32.027-.277.296-4.12.326-4.406.033-.305.147-.616.253-.88.062-.153.178-.36.3-.58.246-.45.418-.783.482-1.057 1.17.24 1.051 2.362 1.02 3.348 0 .002 0 2.166.01 2.684l.524-.001c-.014-.301-.008-2.385 0-2.683C8.333 2.45 8.407-.225 6.37.02L6.021 0l-.116.026C5.6.175 3.876 1.808 3.259 4.016H3.24c-.005.084-.015.168-.033.251-.057.266-.092.535-.146.8-.036.32-.085.637-.137.955-.036.226-.063.454-.093.682h-.01c.01.376-.02.756-.105 1.12-.049.577-.093 1.153-.132 1.73l-.05.738c-.025.36-.047.722-.056 1.083l-.005.238a.764.764 0 0 0-.093.193c-.082.247-.127.503-.171.753-.02.12-.042.24-.067.356-.007.03-.005.054-.006.082a2.48 2.48 0 0 0-1.106.016c-.263.06-.358.201-.393.308-.033.106-.039.278.126.496.165.22.359.408.547.591.07.067.14.135.206.204.017.016.034.023.05.037a3.11 3.11 0 0 0-.542 1.047c-.087.282-.005.446.05.52.048.059.149.15.334.15a.65.65 0 0 0 .12-.012c.228-.042.45-.117.664-.19-.389.719-.633 1.497-.863 2.254-.06.197-.12.394-.184.59-.164.512-.432.754-.843.76-.01.001-.02.005-.026.013L0 20.084V24.1l.264.314c.586.05 1.112.22 1.609.52.238.145.472.296.707.446.754.485 1.533.987 2.424 1.26.744.226 1.49.324 2.056.383.994.103 1.967-.01 2.975-.342.247-.081.475-.202.696-.318.158-.083.317-.167.48-.234.191-.079.404-.116.629-.156l.089-.016c1.278-.231 2.602-.218 3.842-.17.69.026 1.445.128 2.312.31.162.035.33.136.507.241.168.1.343.205.537.272.57.192 1.148.308 1.589.388.269.05.56.073.87.073.08 0 .16-.002.242-.004 1.465-.057 2.622-.343 3.64-.898a24.302 24.302 0 0 0 1.946-1.192c.486-.33 1.021-.473 1.674-.586l.241-.312v-3.977l-.26-.314c-.438-.037-.7-.284-.877-.827l-.115-.36c-.233-.725-.473-1.475-.804-2.172-.207-.434-.294-.866-.29-1.445.004-.93-.022-1.851-.052-2.872a56.617 56.617 0 0 0-.118-2.525 54.861 54.861 0 0 0-.166-1.716c-.01-.1-.02-.202-.032-.302h.003a1.234 1.234 0 0 1-.017-.223l-.016-.09a1.25 1.25 0 0 1-.04-.22c-.007-.038-.012-.076-.02-.114a1.859 1.859 0 0 1-.034-.484c-.058-.498-.13-.998-.228-1.504v-.003a1.283 1.283 0 0 1-.05-.335 10.5 10.5 0 0 1-.012-.072 25.98 25.98 0 0 1-.104-.353 1.534 1.534 0 0 1-.037-.172c-.08-.331-.167-.666-.264-1.007C25.114.608 23.036.031 22.95.008c0-.001-1.674.209-2.088.886-.501.822-.412 2.17-.363 3.1 0 .008.004.014.005.022.018.435.151 2.287.162 2.59.196 0 .375 0 .567-.056l.04.625-.201-3.18c-.04-.747-.076-1.597.106-2.325.148-.588.567-.91 1.058-1.003.283.178.7.887 1.1 1.621.211.39.257.901.324 1.415.013.104.199 2.87.21 2.98.01.296.01.59.017.89.003.29.006.579.006.886.001 1.446.014 2.894.027 4.341l.015 1.772-.273.037a81.02 81.02 0 0 1-1.158.157c-.397.05-.797.132-1.196.231V7.761c-.001-.013-.005-.024-.005-.039l.002-.035-.072-1.137-.568.035Z" mask="url(#mask-2)"/></g><g id="Group-3" transform="translate(11.33)"><mask id="mask-4" fill="#fff"><use xlink:href="#path-3"/></mask><path id="Fill-1" fill="#000" d="m5.112 2.274-2.02 2.361a.248.248 0 0 1-.346.03L1.483 3.617a.27.27 0 0 1-.039-.368.246.246 0 0 1 .355-.042l1.075.894 1.86-2.175a.246.246 0 0 1 .357-.022.27.27 0 0 1 .021.37M3.282 0C1.472 0 0 1.53 0 3.411s1.473 3.412 3.282 3.412c1.81 0 3.283-1.53 3.283-3.412C6.565 1.531 5.092 0 3.282 0" mask="url(#mask-4)"/></g></g></g></g></g></svg>